<svg width="820" height="240" viewBox="0 0 820 240" xmlns="http://www.w3.org/2000/svg">
  <rect width="820" height="240" rx="20" fill="#0D2545"/>
  <g transform="translate(80,120)">
    <path d="M 68 -52 A 66 66 0 0 1 68 52"     fill="none" stroke="#FF6B35" stroke-width="3"   opacity="0.25" stroke-linecap="round"/>
    <path d="M 78 -72 A 90 90 0 0 1 78 72"     fill="none" stroke="#FF6B35" stroke-width="2.5" opacity="0.45" stroke-linecap="round"/>
    <path d="M 88 -94 A 116 116 0 0 1 88 94"   fill="none" stroke="#FF6B35" stroke-width="2"   opacity="0.65" stroke-linecap="round"/>
    <path d="M 98 -116 A 142 142 0 0 1 98 116" fill="none" stroke="#FF6B35" stroke-width="1.5" opacity="0.85" stroke-linecap="round"/>
    <rect x="-58" y="-12" width="108" height="62" rx="8" fill="#ffffff" opacity="0.13"/>
    <rect x="-50" y="-4"  width="92"  height="46" rx="5" fill="#ffffff" opacity="0.06"/>
    <path d="M -72 -12 L -58 -12" stroke="#ffffff" opacity="0.18" stroke-width="8" stroke-linecap="round" fill="none"/>
    <path d="M -72 -12 L -72 28"  stroke="#ffffff" opacity="0.18" stroke-width="8" stroke-linecap="round" fill="none"/>
    <path d="M -58 50 L 50 50"    stroke="#ffffff" opacity="0.18" stroke-width="8" stroke-linecap="round" fill="none"/>
    <circle cx="-32" cy="66" r="12" fill="#ffffff" opacity="0.18"/>
    <circle cx="-32" cy="66" r="6"  fill="#0D2545"/>
    <circle cx="28"  cy="66" r="12" fill="#ffffff" opacity="0.18"/>
    <circle cx="28"  cy="66" r="6"  fill="#0D2545"/>
    <circle cx="18"  cy="20" r="9"  fill="#FF6B35"/>
    <circle cx="18"  cy="20" r="4.5" fill="#0D2545"/>
    <circle cx="-22" cy="20" r="5"  fill="#ffffff" opacity="0.2"/>
    <circle cx="-5"  cy="20" r="5"  fill="#ffffff" opacity="0.2"/>
  </g>
  <text y="142" font-family="-apple-system, Helvetica Neue, Arial, sans-serif" font-weight="700" font-size="72" letter-spacing="-1.5">
    <tspan x="260" fill="#ffffff">Finds</tspan><tspan fill="#FF6B35">Radar</tspan>
  </text>
  <line x1="262" y1="160" x2="700" y2="160" stroke="#1A3A6B" stroke-width="1"/>
  <text x="264" y="182" font-family="-apple-system, Helvetica Neue, Arial, sans-serif" font-size="13" letter-spacing="3.5" fill="#8A9BB0">DISCOVER · SHOP · EXPLORE</text>
</svg>